# AST/ASF file generated using VICON BodyLanguage
# -----------------------------------------------
:version 1.10
:name VICON
:units
  mass 1.0
  length 0.45
  angle deg
:documentation
   .ast/.asf automatically generated from VICON data using
   VICON BodyBuilder and BodyLanguage model FoxedUp or BRILLIANT.MOD
:root
   order TX TY TZ RX RY RZ
   axis XYZ
   position 0 0 0  
   orientation 0 0 0 
:bonedata
  begin
     id 1 
     name lhipjoint
     direction 0.440178 -0.822639 0.359871 
     length 2.53113 
     axis 0 0 0  XYZ
  end
  begin
     id 2 
     name lfemur
     direction 0.34202 -0.939693 0  
     length 7.88132  
     axis 0 0 20  XYZ
    dof rx ry rz
    limits (-160.0 20.0)
           (-70.0 70.0)
           (-60.0 70.0)
  end
  begin
     id 3 
     name ltibia
     direction 0.34202 -0.939693 0   
     length 8.43783   
     axis 0 0 20   XYZ
    dof rx
    limits (-10.0 170.0)
  end
  begin
     id 4 
     name lfoot
     direction 0.0886351 -0.243523 0.965837   
     length 2.63414   
     axis -90 7.62852e-016 20   XYZ
    dof rx rz
    limits (-45.0 90.0)
           (-70.0 20.0)
  end
  begin
     id 5 
     name ltoes
     direction 1.53703e-011 -4.21717e-011 1   
     length 1.31427   
     axis -90 7.62852e-016 20   XYZ
    dof rx
    limits (-90.0 20.0)
  end
  begin
     id 6 
     name rhipjoint
     direction -0.399779 -0.839773 0.367367   
     length 2.47948  
     axis 0 0 0  XYZ 
  end
  begin
     id 7 
     name rfemur
     direction -0.34202 -0.939693 0   
     length 7.74806   
     axis 0 0 -20   XYZ
    dof rx ry rz
    limits (-160.0 20.0)
           (-70.0 70.0)
           (-70.0 60.0)
  end
  begin
     id 8 
     name rtibia
     direction -0.34202 -0.939693 0   
     length 8.74432   
     axis 0 0 -20   XYZ
    dof rx
    limits (-10.0 170.0)
 end
 begin
     id 9 
     name rfoot
     direction -0.108514 -0.298139 0.948334   
     length 2.66102  
     axis -90 -7.62852e-016 -20   XYZ
    dof rx rz
    limits (-45.0 90.0)
           (-20.0 70.0)
  end
  begin
     id 10 
     name rtoes
     direction -1.53392e-011 -4.22077e-011 1   
     length 1.31983   
     axis -90 -7.62852e-016 -20   XYZ
    dof rx
    limits (-90.0 20.0)
  end
  begin
     id 11 
     name lowerback
     direction 0.0113257 0.999866 0.0118602   
     length 2.58694   
     axis 0 0 0   XYZ
    dof rx ry rz
    limits (-20.0 45.0)
           (-30.0 30.0)
           (-30.0 30.0)
  end
  begin
     id 12 
     name upperback
     direction -0.0164747 0.995193 -0.0965375   
     length 2.52368   
     axis 0 0 0   XYZ
    dof rx ry rz
    limits (-20.0 45.0)
           (-30.0 30.0)
           (-30.0 30.0)
  end
  begin
     id 13 
     name thorax
     direction -0.0194301 0.99433 -0.104552   
     length 2.56099   
     axis 0 0 0   XYZ
    dof rx ry rz
    limits (-20.0 45.0)
           (-30.0 30.0)
           (-30.0 30.0)
  end
  begin
     id 14 
     name lowerneck
     direction 0.0148543 0.995587 -0.092657   
     length 1.71582   
     axis 0 0 0   XYZ
    dof rx ry rz
    limits (-20.0 45.0)
           (-30.0 30.0)
           (-30.0 30.0)
  end
  begin
     id 15 
     name upperneck
     direction -0.0135467 0.993656 -0.111639   
     length 1.68937   
     axis 0 0 0   XYZ
    dof rx ry rz
    limits (-20.0 45.0)
           (-30.0 30.0)
           (-30.0 30.0)
  end
  begin
     id 16
     name head
     direction -0.00615349 0.999547 -0.029448  
     length 1.7462  
     axis 0 0 0   XYZ
    dof rx ry rz
    limits (-20.0 45.0)
           (-30.0 30.0)
           (-30.0 30.0)
  end
  begin
     id 17 
     name lclavicle
     direction 0.988267 0.149885 0.0293713  
     length 4.47222  
     axis 0 0 0   XYZ
    dof ry rz
    limits (-20.0 10.0)
           (0.0 20.0)
  end
  begin
     id 18 
     name lhumerus
     direction 1 -4.48986e-011 -1.14833e-027   
     length 5.37148   
     axis 180 -30 -90   XYZ
    dof rx ry rz
    limits (-60.0 90.0)
           (-90.0 90.0)
           (-90.0 90.0)
  end
  begin
     id 19
     name lradius
     direction 0.999998 0.00170963 -0.000987055   
     length 3.94212   
     axis 180 -30 -90   XYZ
    dof rx
    limits (-10.0 170.0)
  end
  begin
     id 20
     name lwrist
     direction 0.999998 7.53149e-005 -0.00194706   
     length 1.97106   
     axis 4.65056e-015 90 90   XYZ
    dof ry
    limits (-180.0 0.0)
 end
  begin
     id 21 
     name lhand
     direction 1 -4.48973e-011 -1.31746e-026   
     length 1.17917   
     axis 8.4065e-015 90 90   XYZ
    dof rx rz
    limits (-90.0 90.0)
           (-45.0 45.0)
  end
  begin
     id 22 
     name lfingers
     direction 1 -4.49107e-011 -2.63492e-026   
     length 0.950679   
     axis 1.6813e-014 90 90   XYZ
    dof rx
    limits (0.0 90.0)
  end
  begin
     id 23
     name lthumb
     direction 0.707107 -6.35048e-011 0.707107   
     length 1.36499   
     axis -90 45 2.85299e-015   XYZ
    dof rx rz
    limits (-45.0 45.0)
           (-45.0 45.0)
  end
  begin
     id 24 
     name rclavicle
     direction -0.996699 0.0642895 -0.0495725   
     length 4.62611  
     axis 0 0 0   XYZ 
    dof ry rz
    limits (-10.0 20.0)
           (-20.0 0.0)
  end
  begin
     id 25 
     name rhumerus
     direction -1 -4.48919e-011 -2.41059e-027  
     length 5.4981   
     axis 180 30 90   XYZ
    dof rx ry rz
    limits (-90.0 60.0)
           (-90.0 90.0)
           (-90.0 90.0)
  end
  begin
     id 26 
     name rradius
     direction -0.999999 0.00118101 -0.000681858   
     length 3.48381   
     axis 180 30 90   XYZ
    dof rx
    limits (-10.0 170.0)
  end
  begin
     id 27 
     name rwrist
     direction -0.999999 0.000321823 -0.00132288   
     length 1.7419   
     axis 4.65056e-015 -90 -90   XYZ
    dof ry
    limits (-180.0 0.0)
  end
  begin
     id 28
     name rhand
     direction -1 -4.49022e-011 -1.31746e-026   
     length 1.34932   
     axis 8.4065e-015 -90 -90   XYZ
    dof rx rz
    limits (-90.0 90.0)
           (-45.0 45.0)
  end
  begin
     id 29
     name rfingers
     direction -1 -4.49178e-011 -2.63492e-026   
     length 1.08785   
     axis 1.6813e-014 -90 -90   XYZ
    dof rx
    limits (0.0 90.0)
  end
  begin
     id 30
     name rthumb
     direction -0.707107 -6.34713e-011 0.707107   
     length 1.56195   
     axis -90 -45 -2.85299e-015   XYZ
    dof rx rz
    limits (-45.0 45.0)
           (-45.0 45.0)
  end
:hierarchy
  begin
    root lhipjoint rhipjoint lowerback
    lhipjoint lfemur
    lfemur ltibia
    ltibia lfoot
    lfoot ltoes
    rhipjoint rfemur
    rfemur rtibia
    rtibia rfoot
    rfoot rtoes
    lowerback upperback
    upperback thorax
    thorax lowerneck lclavicle rclavicle
    lowerneck upperneck
    upperneck head
    lclavicle lhumerus
    lhumerus lradius
    lradius lwrist
    lwrist lhand lthumb
    lhand lfingers
    rclavicle rhumerus
    rhumerus rradius
    rradius rwrist
    rwrist rhand rthumb
    rhand rfingers
  end

#!OML:ASF X:\für Bonn\!DataBase\2005_08_10_Bjorn_Final\c3d\bjorn.ASF
:FULLY-SPECIFIED
:DEGREES
1
root 4.89263 16.7985 -3.4619 8.03717 0.0786207 361.083
lowerback 7.8039 1.85527 0.557978
upperback 13.2462 2.38025 1.58021
thorax 9.68209 1.13936 1.39303
lowerneck -5.93589 -2.6213 0.408583
upperneck -19.2077 -3.53357 0.479529
head -4.81342 -1.80826 0.16551
rclavicle 2.70347e-014 -3.97569e-015
rhumerus -34.2227 -28.1269 -83.4371
rradius 54.3736
rwrist -7.40165
rhand -31.8845 32.3895
rfingers 7.12502
rthumb -5.13725 2.47173
lclavicle 2.70347e-014 -3.97569e-015
lhumerus -25.4213 8.51132 90.7745
lradius 29.3081
lwrist 26.2325
lhand -41.1212 -16.1938
lfingers 7.12502
lthumb -14.0484 13.3114
rfemur -33.4062 1.27444 10.7024
rtibia 72.1398
rfoot -35.0481 11.8497
rtoes -34.5329
lfemur -37.0823 -4.61042 -16.341
ltibia 74.7756
lfoot -29.0284 2.91827
ltoes -32.1413
2
root 4.90511 16.7374 -3.30134 8.00774 0.147867 361.265
lowerback 7.48065 1.86877 0.508053
upperback 13.0765 2.40322 1.4963
thorax 9.67316 1.15152 1.33799
lowerneck -6.25227 -2.7033 0.468733
upperneck -18.3987 -3.67509 0.277756
head -5.0731 -1.87151 0.103688
rclavicle -2.98177e-014 8.74653e-015
rhumerus -35.3125 -27.7662 -82.9917
rradius 57.2031
rwrist -7.77702
rhand -32.8675 32.0219
rfingers 7.12502
rthumb -6.08632 2.12931
lclavicle -2.98177e-014 8.74653e-015
lhumerus -26.1471 8.19306 90.5015
lradius 31.6805
lwrist 26.959
lhand -41.4411 -14.0797
lfingers 7.12502
lthumb -14.3567 15.4039
rfemur -32.9638 1.57166 10.461
rtibia 72.7074
rfoot -35.4285 11.5385
rtoes -35.013
lfemur -36.7203 -4.4833 -16.6779
ltibia 75.433
lfoot -29.5181 3.35433
ltoes -33.4072
3
root 4.91754 16.7133 -3.12636 7.98009 0.190269 361.357
lowerback 7.01082 1.88444 0.562966
upperback 12.907 2.42997 1.3944
thorax 9.75594 1.17554 1.21191
lowerneck -6.2361 -2.77279 0.576209
upperneck -18.3029 -3.79269 0.122463
head -5.04605 -1.92928 0.033839
rclavicle -1.07344e-014 1.59028e-014
rhumerus -36.4258 -27.4585 -82.5863
rradius 60.1959
rwrist -7.76133
rhand -33.9224 33.8958
rfingers 7.12502
rthumb -7.10461 4.03506
lclavicle -1.07344e-014 1.59028e-014
lhumerus -26.9872 7.42308 90.2653
lradius 34.675
lwrist 27.3536
lhand -41.1915 -14.2207
lfingers 7.12502
lthumb -14.1162 15.2797
rfemur -32.2759 1.85921 10.3205
rtibia 72.848
rfoot -35.596 11.434
rtoes -35.3812
lfemur -36.128 -4.32481 -16.8942
ltibia 75.7363
lfoot -29.8236 3.63946
ltoes -34.5815
4
root 4.92895 16.7271 -2.93744 7.96886 0.231201 361.408
lowerback 6.36926 1.90621 0.669611
upperback 12.7384 2.46301 1.29384
thorax 9.94376 1.20645 1.06615
lowerneck -6.16335 -2.8525 0.614505
upperneck -18.1817 -3.90861 0.0633923
head -5.01623 -1.98585 0.00962561
rclavicle 2.70347e-014 7.15625e-015
rhumerus -37.3717 -27.2382 -82.1541
rradius 63.1943
rwrist -7.46654
rhand -34.9564 36.2765
rfingers 7.12502
rthumb -8.10268 6.45186
lclavicle 2.70347e-014 7.15625e-015
lhumerus -28.0762 6.41809 89.9964
lradius 38.0947
lwrist 26.7325
lhand -40.8779 -15.2333
lfingers 7.12502
lthumb -13.8139 14.2881
rfemur -31.3518 2.11692 10.2394
rtibia 72.5659
rfoot -35.5466 11.442
rtoes -35.6852
lfemur -35.323 -4.18112 -17.0302
ltibia 75.6609
lfoot -29.9256 3.62295
ltoes -35.3124
5
root 4.9401 16.7735 -2.73444 7.95325 0.266005 361.436
lowerback 5.60413 1.9168 0.779026
upperback 12.5422 2.47885 1.19477
thorax 10.175 1.22848 0.924638
lowerneck -6.15637 -2.915 0.568646
upperneck -17.7423 -3.98761 0.070583
head -4.84766 -2.02209 0.0166365
rclavicle -2.38542e-015 0
rhumerus -38.3025 -26.8914 -81.7926
rradius 66.4751
rwrist -7.32195
rhand -35.9583 37.4712
rfingers 7.12502
rthumb -9.0696 7.68615
lclavicle -2.38542e-015 0
lhumerus -29.3516 5.2462 89.6884
lradius 41.7345
lwrist 24.9479
lhand -40.9783 -15.479
lfingers 7.12502
lthumb -13.9108 14.0358
rfemur -30.2013 2.25576 10.183
rtibia 71.8743
rfoot -35.2365 11.6749
rtoes -35.803
lfemur -34.2963 -4.03658 -17.1118
ltibia 75.2044
lfoot -29.8235 3.39827
ltoes -35.9274
6
root 4.95136 16.8488 -2.52231 7.9416 0.310882 361.436
lowerback 4.77982 1.94386 0.978568
upperback 12.2575 2.51791 1.04811
thorax 10.3483 1.2735 0.683127
lowerneck -6.12342 -2.98756 0.589605
upperneck -16.9389 -4.07596 0.0960724
head -4.5494 -2.0682 0.0142691
rclavicle -2.50469e-014 1.27222e-014
rhumerus -39.5753 -26.5789 -81.4416
rradius 70.0292
rwrist -7.34399
rhand -37.0241 37.7932
rfingers 7.12502
rthumb -10.0979 8.05546
lclavicle -2.50469e-014 1.27222e-014
lhumerus -30.7547 3.71086 89.2942
lradius 45.5201
lwrist 22.8578
lhand -40.9726 -14.8381
lfingers 7.12502
lthumb -13.9053 14.6769
rfemur -28.8691 2.24088 10.1472
rtibia 70.8069
rfoot -34.6355 12.0795
rtoes -35.5813
lfemur -33.0869 -3.8875 -17.1419
ltibia 74.3846
lfoot -29.4456 3.06617
ltoes -36.5364
7
root 4.95887 16.9517 -2.29759 7.96142 0.351374 361.423
lowerback 3.8461 1.97512 1.13746
upperback 11.8522 2.56003 0.904743
thorax 10.449 1.31524 0.469086
lowerneck -5.99048 -3.05635 0.604913
upperneck -15.7623 -4.16042 0.0924184
head -4.13782 -2.11065 -1.79549e-005
rclavicle -2.8625e-014 -8.74653e-015
rhumerus -41.0484 -26.1945 -81.0061
rradius 73.6032
rwrist -7.41282
rhand -37.9122 37.2314
rfingers 7.12502
rthumb -10.9546 7.53721
lclavicle -2.8625e-014 -8.74653e-015
lhumerus -32.3267 1.99004 88.9398
lradius 49.371
lwrist 20.9833
lhand -41.266 -14.1514
lfingers 7.12502
lthumb -14.1879 15.344
rfemur -27.3971 2.14904 10.1461
rtibia 69.3981
rfoot -33.7933 12.7068
rtoes -34.9094
lfemur -31.7417 -3.60751 -17.1003
ltibia 73.2089
lfoot -28.7952 2.42151
ltoes -37.0784
8
root 4.96459 17.0799 -2.06488 7.99256 0.402214 361.426
lowerback 2.86043 2.00672 1.26832
upperback 11.36 2.60146 0.756249
thorax 10.4838 1.35335 0.265396
lowerneck -5.85845 -3.134 0.576092
upperneck -14.1709 -4.25152 0.109872
head -3.58599 -2.15477 -0.0050125
rclavicle 2.78299e-014 -1.27222e-014
rhumerus -42.5847 -25.7675 -80.4935
rradius 77.1386
rwrist -7.46518
rhand -38.3956 35.9118
rfingers 7.12502
rthumb -11.4208 6.24289
lclavicle 2.78299e-014 -1.27222e-014
lhumerus -34.0138 0.00451079 88.7349
lradius 53.2595
lwrist 19.7232
lhand -42.3722 -14.3324
lfingers 7.12502
lthumb -15.2537 15.0852
rfemur -25.7896 1.96118 10.1383
rtibia 67.6706
rfoot -32.7592 13.3662
rtoes -34.2207
lfemur -30.2683 -3.22957 -17.0212
ltibia 71.7124
lfoot -27.9086 1.43516
ltoes -37.1331
9
root 4.96925 17.2298 -1.83003 7.94002 0.447268 361.41
lowerback 1.92688 2.03633 1.38407
upperback 10.8593 2.6384 0.621599
thorax 10.4809 1.38629 0.0831564
lowerneck -5.85619 -3.19979 0.530607
upperneck -12.2267 -4.32482 0.140168
head -2.90569 -2.1895 -0.0104387
rclavicle -4.41302e-014 9.54166e-015
rhumerus -44.0085 -25.346 -79.9619
rradius 80.6088
rwrist -7.30792
rhand -38.913 35.2933
rfingers 7.12502
rthumb -11.9197 5.65264
lclavicle -4.41302e-014 9.54166e-015
lhumerus -35.696 -2.0581 88.6752
lradius 57.2603
lwrist 18.9252
lhand -43.9144 -14.9912
lfingers 7.12502
lthumb -16.7388 14.3072
rfemur -23.9769 1.75421 10.1502
rtibia 65.658
rfoot -31.3583 14.1583
rtoes -33.1114
lfemur -28.5939 -2.74824 -16.8838
ltibia 69.904
lfoot -26.7277 0.201771
ltoes -37.2465
10
root 4.97308 17.3982 -1.5895 7.80619 0.511766 361.383
lowerback 1.03231 2.04177 1.48793
upperback 10.3365 2.63975 0.517619
thorax 10.4304 1.39818 -0.0641402
lowerneck -5.8138 -3.25452 0.447093
upperneck -10.1159 -4.38601 0.136235
head -2.20129 -2.21531 -0.0219764
rclavicle -1.74931e-014 1.98785e-014
rhumerus -45.3841 -24.892 -79.2886
rradius 84.0618
rwrist -6.90646
rhand -39.3506 35.4344
rfingers 7.12502
rthumb -12.3417 5.81865
lclavicle -1.74931e-014 1.98785e-014
lhumerus -37.3873 -3.94502 88.6812
lradius 61.2049
lwrist 17.9197
lhand -45.4533 -16.1109
lfingers 7.12502
lthumb -18.2198 13.0558
rfemur -21.9439 1.44553 10.1585
rtibia 63.3701
rfoot -29.5079 15.0251
rtoes -32.1552
lfemur -26.6993 -2.28464 -16.7107
ltibia 67.8049
lfoot -25.2955 -1.29286
ltoes -36.9912
11
root 4.97795 17.5906 -1.33923 7.5725 0.554964 361.32
lowerback 0.154776 2.04579 1.62384
upperback 9.81917 2.63545 0.419178
thorax 10.3809 1.40908 -0.224144
lowerneck -5.56738 -3.28722 0.472488
upperneck -8.07407 -4.42792 0.0419812
head -1.58309 -2.23326 -0.0743859
rclavicle 3.18055e-015 3.18055e-015
rhumerus -46.698 -24.5361 -78.535
rradius 87.5096
rwrist -6.21964
rhand -39.0716 35.2522
rfingers 7.12502
rthumb -12.0727 5.62041
lclavicle 3.18055e-015 3.18055e-015
lhumerus -39.1885 -5.65129 88.695
lradius 65.1396
lwrist 16.9416
lhand -46.3984 -17.1702
lfingers 7.12502
lthumb -19.1288 11.9091
rfemur -19.7675 1.02342 10.1636
rtibia 60.8193
rfoot -27.1531 16.0039
rtoes -31.5954
lfemur -24.5558 -1.76893 -16.4858
ltibia 65.405
lfoot -23.5526 -2.96016
ltoes -36.5619
